<mxfile host="app.diagrams.net" agent="Mozilla/5.0 (Macintosh; Intel Mac OS X 10_15_7) AppleWebKit/537.36 (KHTML, like Gecko) Chrome/136.0.0.0 Safari/537.36" version="27.0.1">
  <diagram name="Page-1" id="fnPZHXWzAYyOPXmGVu23">
    <mxGraphModel dx="1154" dy="1791" grid="1" gridSize="10" guides="1" tooltips="1" connect="1" arrows="1" fold="1" page="1" pageScale="1" pageWidth="850" pageHeight="1100" math="0" shadow="0">
      <root>
        <mxCell id="0" />
        <mxCell id="1" parent="0" />
        <mxCell id="0PG9RgczWeZy1GBbQK-h-1" value="" style="rounded=0;whiteSpace=wrap;html=1;" parent="1" vertex="1">
          <mxGeometry x="370" y="210" width="220" height="180" as="geometry" />
        </mxCell>
        <mxCell id="0PG9RgczWeZy1GBbQK-h-2" value="&lt;font style=&quot;font-size: 14px;&quot;&gt;PieceType type;&lt;/font&gt;&lt;div&gt;&lt;span style=&quot;font-size: 14px;&quot;&gt;&lt;br&gt;&lt;/span&gt;&lt;div&gt;&lt;font style=&quot;font-size: 14px;&quot;&gt;PlayerPiece(PieceType type);&lt;br&gt;&lt;/font&gt;&lt;div&gt;&lt;br&gt;&lt;/div&gt;&lt;/div&gt;&lt;/div&gt;" style="text;html=1;align=center;verticalAlign=middle;whiteSpace=wrap;rounded=0;" parent="1" vertex="1">
          <mxGeometry x="360" y="240" width="220" height="30" as="geometry" />
        </mxCell>
        <mxCell id="0PG9RgczWeZy1GBbQK-h-4" value="&lt;b&gt;&lt;font style=&quot;font-size: 14px;&quot;&gt;Playing Piece&lt;/font&gt;&lt;/b&gt;" style="text;html=1;align=center;verticalAlign=middle;whiteSpace=wrap;rounded=0;" parent="1" vertex="1">
          <mxGeometry x="415" y="180" width="130" height="30" as="geometry" />
        </mxCell>
        <mxCell id="0PG9RgczWeZy1GBbQK-h-5" value="" style="rounded=0;whiteSpace=wrap;html=1;" parent="1" vertex="1">
          <mxGeometry x="290" y="490" width="120" height="60" as="geometry" />
        </mxCell>
        <mxCell id="0PG9RgczWeZy1GBbQK-h-6" value="&lt;font style=&quot;font-size: 14px;&quot;&gt;&lt;b&gt;Piece X&lt;/b&gt;&lt;/font&gt;" style="text;html=1;align=center;verticalAlign=middle;whiteSpace=wrap;rounded=0;" parent="1" vertex="1">
          <mxGeometry x="320" y="460" width="60" height="30" as="geometry" />
        </mxCell>
        <mxCell id="0PG9RgczWeZy1GBbQK-h-8" value="PieceX()" style="text;html=1;align=center;verticalAlign=middle;whiteSpace=wrap;rounded=0;" parent="1" vertex="1">
          <mxGeometry x="310" y="500" width="60" height="30" as="geometry" />
        </mxCell>
        <mxCell id="0PG9RgczWeZy1GBbQK-h-12" value="" style="rounded=0;whiteSpace=wrap;html=1;" parent="1" vertex="1">
          <mxGeometry x="530" y="490" width="120" height="60" as="geometry" />
        </mxCell>
        <mxCell id="0PG9RgczWeZy1GBbQK-h-13" value="&lt;font style=&quot;font-size: 14px;&quot;&gt;&lt;b&gt;Piece X&lt;/b&gt;&lt;/font&gt;" style="text;html=1;align=center;verticalAlign=middle;whiteSpace=wrap;rounded=0;" parent="1" vertex="1">
          <mxGeometry x="560" y="460" width="60" height="30" as="geometry" />
        </mxCell>
        <mxCell id="0PG9RgczWeZy1GBbQK-h-14" value="PieceO()" style="text;html=1;align=center;verticalAlign=middle;whiteSpace=wrap;rounded=0;" parent="1" vertex="1">
          <mxGeometry x="550" y="500" width="60" height="30" as="geometry" />
        </mxCell>
        <mxCell id="0PG9RgczWeZy1GBbQK-h-15" value="" style="shape=flexArrow;endArrow=classic;html=1;rounded=0;" parent="1" edge="1">
          <mxGeometry width="50" height="50" relative="1" as="geometry">
            <mxPoint x="365" y="450" as="sourcePoint" />
            <mxPoint x="415" y="400" as="targetPoint" />
          </mxGeometry>
        </mxCell>
        <mxCell id="0PG9RgczWeZy1GBbQK-h-16" value="" style="shape=flexArrow;endArrow=classic;html=1;rounded=0;" parent="1" edge="1">
          <mxGeometry width="50" height="50" relative="1" as="geometry">
            <mxPoint x="585" y="450" as="sourcePoint" />
            <mxPoint x="545" y="400" as="targetPoint" />
          </mxGeometry>
        </mxCell>
        <mxCell id="0PG9RgczWeZy1GBbQK-h-17" value="&lt;font style=&quot;font-size: 14px;&quot;&gt;&lt;b&gt;enum PieceType{&lt;/b&gt;&lt;/font&gt;&lt;div&gt;&lt;font size=&quot;3&quot;&gt;&lt;b&gt;X,&lt;/b&gt;&lt;/font&gt;&lt;/div&gt;&lt;div&gt;&lt;font size=&quot;3&quot;&gt;&lt;b&gt;O&#39;&lt;/b&gt;&lt;/font&gt;&lt;/div&gt;&lt;div&gt;&lt;font size=&quot;3&quot;&gt;&lt;b&gt;}&lt;/b&gt;&lt;/font&gt;&lt;/div&gt;" style="text;html=1;align=center;verticalAlign=middle;whiteSpace=wrap;rounded=0;" parent="1" vertex="1">
          <mxGeometry x="640" y="210" width="120" height="60" as="geometry" />
        </mxCell>
        <mxCell id="0PG9RgczWeZy1GBbQK-h-18" value="" style="rounded=0;whiteSpace=wrap;html=1;" parent="1" vertex="1">
          <mxGeometry x="60" y="210" width="120" height="140" as="geometry" />
        </mxCell>
        <mxCell id="0PG9RgczWeZy1GBbQK-h-19" value="&lt;font style=&quot;font-size: 14px;&quot;&gt;&lt;b&gt;Board&lt;/b&gt;&lt;/font&gt;" style="text;whiteSpace=wrap;html=1;" parent="1" vertex="1">
          <mxGeometry x="90" y="180" width="110" height="40" as="geometry" />
        </mxCell>
        <mxCell id="0PG9RgczWeZy1GBbQK-h-20" value="int size;&lt;div&gt;PlayingPiece[][] board;&lt;/div&gt;" style="text;html=1;align=center;verticalAlign=middle;whiteSpace=wrap;rounded=0;" parent="1" vertex="1">
          <mxGeometry x="45" y="225" width="150" height="30" as="geometry" />
        </mxCell>
        <mxCell id="0PG9RgczWeZy1GBbQK-h-21" value="" style="endArrow=classic;html=1;rounded=0;exitX=1;exitY=0.5;exitDx=0;exitDy=0;" parent="1" source="0PG9RgczWeZy1GBbQK-h-18" edge="1">
          <mxGeometry width="50" height="50" relative="1" as="geometry">
            <mxPoint x="400" y="400" as="sourcePoint" />
            <mxPoint x="370" y="280" as="targetPoint" />
          </mxGeometry>
        </mxCell>
        <mxCell id="0PG9RgczWeZy1GBbQK-h-22" value="" style="rounded=0;whiteSpace=wrap;html=1;" parent="1" vertex="1">
          <mxGeometry x="420" y="-30" width="120" height="60" as="geometry" />
        </mxCell>
        <mxCell id="0PG9RgczWeZy1GBbQK-h-23" value="&lt;font style=&quot;font-size: 14px;&quot;&gt;&lt;b&gt;Player&lt;/b&gt;&lt;/font&gt;" style="text;html=1;align=center;verticalAlign=middle;whiteSpace=wrap;rounded=0;" parent="1" vertex="1">
          <mxGeometry x="445" y="-70" width="60" height="30" as="geometry" />
        </mxCell>
        <mxCell id="0PG9RgczWeZy1GBbQK-h-24" value="String name;&lt;div&gt;PlayingPiece piece&lt;/div&gt;" style="text;html=1;align=center;verticalAlign=middle;whiteSpace=wrap;rounded=0;" parent="1" vertex="1">
          <mxGeometry x="415" y="-20" width="120" height="20" as="geometry" />
        </mxCell>
        <mxCell id="0PG9RgczWeZy1GBbQK-h-25" value="" style="endArrow=classic;html=1;rounded=0;entryX=0.5;entryY=0;entryDx=0;entryDy=0;exitX=0.5;exitY=1;exitDx=0;exitDy=0;" parent="1" source="0PG9RgczWeZy1GBbQK-h-22" target="0PG9RgczWeZy1GBbQK-h-4" edge="1">
          <mxGeometry width="50" height="50" relative="1" as="geometry">
            <mxPoint x="480" y="102" as="sourcePoint" />
            <mxPoint x="450" y="180" as="targetPoint" />
          </mxGeometry>
        </mxCell>
        <mxCell id="0PG9RgczWeZy1GBbQK-h-26" value="" style="rounded=0;whiteSpace=wrap;html=1;" parent="1" vertex="1">
          <mxGeometry x="60" y="-70" width="120" height="140" as="geometry" />
        </mxCell>
        <mxCell id="0PG9RgczWeZy1GBbQK-h-28" value="List&amp;lt;Player&amp;gt; player;&lt;div&gt;Board board;&lt;/div&gt;" style="text;html=1;align=center;verticalAlign=middle;whiteSpace=wrap;rounded=0;" parent="1" vertex="1">
          <mxGeometry x="60" y="-50" width="120" height="20" as="geometry" />
        </mxCell>
        <mxCell id="0PG9RgczWeZy1GBbQK-h-30" value="" style="endArrow=classic;html=1;rounded=0;exitX=0.5;exitY=1;exitDx=0;exitDy=0;entryX=0.273;entryY=0.25;entryDx=0;entryDy=0;entryPerimeter=0;" parent="1" source="0PG9RgczWeZy1GBbQK-h-26" target="0PG9RgczWeZy1GBbQK-h-19" edge="1">
          <mxGeometry width="50" height="50" relative="1" as="geometry">
            <mxPoint x="400" y="230" as="sourcePoint" />
            <mxPoint x="450" y="180" as="targetPoint" />
          </mxGeometry>
        </mxCell>
        <mxCell id="0PG9RgczWeZy1GBbQK-h-31" value="" style="endArrow=none;html=1;rounded=0;exitX=0;exitY=0.5;exitDx=0;exitDy=0;entryX=1;entryY=0.5;entryDx=0;entryDy=0;" parent="1" source="0PG9RgczWeZy1GBbQK-h-18" target="0PG9RgczWeZy1GBbQK-h-18" edge="1">
          <mxGeometry width="50" height="50" relative="1" as="geometry">
            <mxPoint x="400" y="230" as="sourcePoint" />
            <mxPoint x="450" y="180" as="targetPoint" />
          </mxGeometry>
        </mxCell>
        <mxCell id="0PG9RgczWeZy1GBbQK-h-32" value="addPiece();" style="text;html=1;align=center;verticalAlign=middle;whiteSpace=wrap;rounded=0;" parent="1" vertex="1">
          <mxGeometry x="90" y="285" width="60" height="30" as="geometry" />
        </mxCell>
        <mxCell id="0PG9RgczWeZy1GBbQK-h-33" value="" style="endArrow=none;html=1;rounded=0;exitX=0.001;exitY=0.337;exitDx=0;exitDy=0;exitPerimeter=0;entryX=0.986;entryY=0.333;entryDx=0;entryDy=0;entryPerimeter=0;" parent="1" source="0PG9RgczWeZy1GBbQK-h-26" target="0PG9RgczWeZy1GBbQK-h-26" edge="1">
          <mxGeometry width="50" height="50" relative="1" as="geometry">
            <mxPoint x="410" y="50" as="sourcePoint" />
            <mxPoint x="180" y="-5" as="targetPoint" />
          </mxGeometry>
        </mxCell>
        <mxCell id="0PG9RgczWeZy1GBbQK-h-34" value="startGame();&lt;div&gt;initializeGame();&lt;/div&gt;" style="text;html=1;align=center;verticalAlign=middle;whiteSpace=wrap;rounded=0;" parent="1" vertex="1">
          <mxGeometry x="90" y="-10" width="60" height="30" as="geometry" />
        </mxCell>
        <mxCell id="0PG9RgczWeZy1GBbQK-h-36" value="" style="endArrow=classic;html=1;rounded=0;exitX=1;exitY=0.5;exitDx=0;exitDy=0;entryX=0;entryY=1;entryDx=0;entryDy=0;" parent="1" source="0PG9RgczWeZy1GBbQK-h-26" target="0PG9RgczWeZy1GBbQK-h-24" edge="1">
          <mxGeometry width="50" height="50" relative="1" as="geometry">
            <mxPoint x="400" y="200" as="sourcePoint" />
            <mxPoint x="450" y="150" as="targetPoint" />
          </mxGeometry>
        </mxCell>
        <mxCell id="0PG9RgczWeZy1GBbQK-h-37" value="&lt;font style=&quot;font-size: 14px;&quot;&gt;&lt;b&gt;Game&lt;/b&gt;&lt;/font&gt;" style="text;html=1;align=center;verticalAlign=middle;resizable=0;points=[];autosize=1;strokeColor=none;fillColor=none;" parent="1" vertex="1">
          <mxGeometry x="90" y="-100" width="60" height="30" as="geometry" />
        </mxCell>
      </root>
    </mxGraphModel>
  </diagram>
</mxfile>
